<svg width="1000" height="1000" viewBox="0 0 1000 1000" fill="none" xmlns="http://www.w3.org/2000/svg">
<g clip-path="url(#clip0_6_151)">
<path fill-rule="evenodd" clip-rule="evenodd" d="M628.367 836.628C594.382 909.401 555.129 946.564 520 956.927V717.822C557.635 718.202 595.262 719.656 632.835 722.182L621.909 681.403C587.967 679.351 553.987 678.157 520 677.82V520H692.81C692.131 555.612 689.649 590.088 685.589 623.03L724.587 633.48C729.276 597.145 732.097 559.151 732.817 520H959.573C957.053 578.898 943.459 634.928 920.818 686.06L959.896 696.53C985.71 636.203 1000 569.77 1000 500C1000 405.287 973.666 316.725 927.919 241.236L927.011 235.225L924.459 235.61C836.147 94.1312 679.066 0 500 0L499.659 0.000113681L499.5 0C499.354 0 499.208 0.000287167 499.062 0.000861253C320.385 0.328969 163.699 94.3783 75.5409 235.61L72.9893 235.225L72.0806 241.236C26.3344 316.725 0 405.287 0 500C0 775.83 223.351 999.493 499.062 999.999C499.208 1000 499.354 1000 499.5 1000L499.659 1000L500 1000C569.77 1000 636.203 985.71 696.531 959.896L686.06 920.818C659.554 932.554 631.732 941.86 602.877 948.452C626.778 923.14 648.365 889.325 666.776 848.852L649.457 784.217C642.999 802.889 635.942 820.408 628.367 836.628ZM480 957.215V717.822C430.632 718.321 381.278 720.666 332.042 724.858C342.396 766.533 355.479 804.179 370.633 836.628C404.941 910.092 444.618 947.266 480 957.215ZM323.314 685.463C375.449 680.885 427.717 678.338 480 677.82V520H306.19C307.312 578.855 313.359 634.608 323.314 685.463ZM266.183 520C267.281 579.748 273.275 636.803 283.33 689.375C254.858 692.447 226.435 696.126 198.081 700.412L93.8529 716.167C62.4295 657.25 43.4511 590.691 40.427 520H266.183ZM395.846 948.159C279.397 921.203 179.883 850.03 115.949 753.281L204.06 739.962C233.24 735.551 262.495 731.796 291.802 728.698C314.618 823.518 351.179 900.697 395.846 948.159ZM692.81 480H520V317.18C571.628 316.669 623.241 314.178 674.726 309.708C685.252 361.855 691.652 419.276 692.81 480ZM665.746 270.329C617.244 274.404 568.629 276.687 520 277.178V43.0728C555.129 53.4363 594.382 90.5988 628.367 163.372C642.935 194.568 655.59 230.565 665.746 270.329ZM706.034 266.53C683.101 173.698 646.917 98.1872 602.877 51.5477C718.045 77.8586 816.748 147.394 881.012 242.178L795.94 255.038C766.042 259.557 736.065 263.388 706.034 266.53ZM714.74 305.832C725.355 359.723 731.686 418.431 732.817 480H959.573C956.47 407.454 936.564 339.26 903.648 279.211L801.919 294.588C772.924 298.971 743.857 302.719 714.74 305.832ZM96.3522 279.211C63.4365 339.26 43.5304 407.454 40.427 480H266.183C267.315 418.391 273.653 359.647 284.281 305.727C255.491 302.635 226.751 298.922 198.081 294.588L96.3522 279.211ZM292.991 266.428C263.286 263.305 233.635 259.508 204.06 255.038L118.988 242.178C183.014 147.744 281.226 78.3731 395.846 51.8413C351.947 98.4866 315.878 173.837 292.991 266.428ZM324.292 309.622C313.755 361.792 307.349 419.243 306.19 480H480V317.18C428.044 316.665 376.102 314.146 324.292 309.622ZM480 277.178C431.044 276.683 382.102 274.373 333.275 270.247C343.428 230.516 356.075 194.546 370.633 163.372C404.941 89.9075 444.618 52.7335 480 42.7847V277.178ZM940.465 786.686L833.5 832.5L786.764 940.755L761.212 999.941L744.526 937.671L685.785 718.445L673.831 673.831L718.445 685.785L937.443 744.465L999.941 761.212L940.465 786.686ZM796.776 816.646L770.079 878.485L730.399 730.399L877.967 769.94L817.751 795.731L803.096 802.008L796.776 816.646Z" fill="#6366F1"/>
</g>
<defs>
<clipPath id="clip0_6_151">
<rect width="1000" height="1000" fill="white"/>
</clipPath>
</defs>
</svg>
